<svg width="2500" height="2500" viewBox="0 0 25 25" fill="none" xmlns="http://www.w3.org/2000/svg">
<g clip-path="url(#clip0_2_31)">
<path d="M12.5208 24.1276C19.0809 24.1276 24.399 18.8095 24.399 12.2494C24.399 5.68926 19.0809 0.371208 12.5208 0.371208C5.96066 0.371208 0.642609 5.68926 0.642609 12.2494C0.642609 18.8095 5.96066 24.1276 12.5208 24.1276Z" fill="#5773E7"/>
<path d="M12.5187 4.3305L12.4124 4.69142V15.1635L12.5187 15.2695L17.3795 12.3962L12.5187 4.3305Z" fill="#BDC8F6"/>
<path d="M12.5176 4.33054L7.65662 12.3962L12.5176 15.2695V10.1867V4.33054Z" fill="white"/>
<path d="M12.5186 16.1903L12.4587 16.2633V19.9936L12.5186 20.1684L17.3825 13.3184L12.5186 16.1903Z" fill="#BDC8F6"/>
<path d="M12.5176 20.1684V16.1903L7.65662 13.3184L12.5176 20.1684Z" fill="white"/>
<path d="M12.517 15.2693L17.3779 12.3959L12.517 10.1864V15.2693Z" fill="#798FEC"/>
<path d="M7.65662 12.3959L12.5176 15.2693V10.1864L7.65662 12.3959Z" fill="#BDC8F6"/>
</g>
<defs>
<clipPath id="clip0_2_31">
<rect width="24.4988" height="24.4987" fill="white"/>
</clipPath>
</defs>
</svg>
