<?xml version="1.0" standalone="no"?>
<!DOCTYPE svg PUBLIC "-//W3C//DTD SVG 20010904//EN"
 "http://www.w3.org/TR/2001/REC-SVG-20010904/DTD/svg10.dtd">
<svg version="1.0" xmlns="http://www.w3.org/2000/svg"
 width="200.000000pt" height="200.000000pt" viewBox="0 0 200.000000 200.000000"
 preserveAspectRatio="xMidYMid meet">

<g transform="translate(0.000000,200.000000) scale(0.100000,-0.100000)"
fill="#000000" stroke="none">
<path d="M1025 1983 c-101 -53 -155 -131 -155 -225 0 -74 26 -144 95 -258 84
-138 127 -243 145 -354 17 -104 -15 -166 -69 -136 -34 18 -67 88 -120 255 -81
256 -143 366 -264 466 -34 29 -91 66 -127 83 -58 27 -75 31 -156 31 -83 0 -95
-3 -157 -34 -74 -38 -169 -129 -192 -185 -8 -20 -15 -64 -15 -98 0 -129 82
-229 322 -394 68 -47 158 -184 158 -240 0 -6 -24 -26 -54 -43 -125 -70 -182
-200 -157 -361 29 -185 160 -379 311 -459 56 -30 61 -31 193 -31 124 0 139 2
191 26 78 36 153 35 233 -1 59 -26 64 -26 234 -23 162 3 177 5 224 28 73 37
174 142 217 225 86 167 124 329 116 495 -4 90 -9 107 -42 174 -43 88 -125 168
-215 212 l-58 28 -6 116 c-12 249 -99 485 -227 619 -92 97 -103 101 -260 101
-104 -1 -142 -5 -165 -17z m249 -33 c104 -39 195 -143 276 -314 57 -119 96
-257 108 -378 l8 -88 -56 0 c-71 -1 -126 -26 -173 -80 -42 -50 -90 -165 -107
-260 -15 -83 -15 -292 1 -370 26 -131 108 -213 214 -215 166 -1 263 106 271
300 l3 80 -9 -62 c-22 -154 -104 -233 -242 -233 -65 0 -110 22 -141 69 -39 58
-51 116 -50 236 1 221 66 400 166 452 95 49 283 -60 354 -206 26 -52 28 -64
28 -186 0 -105 -5 -145 -23 -210 -36 -124 -94 -236 -162 -308 -123 -132 -225
-154 -454 -98 -70 17 -141 31 -158 31 -16 0 -78 -14 -137 -32 -145 -44 -249
-46 -335 -5 -75 35 -213 172 -285 281 -42 64 -51 86 -56 141 -4 36 -4 82 0
102 33 180 208 280 400 228 101 -27 231 -31 334 -10 100 21 127 16 156 -29 53
-81 -31 -270 -152 -342 -42 -26 -58 -29 -128 -29 -70 0 -88 4 -145 32 -36 18
-76 40 -90 50 l-25 18 23 -31 c29 -42 108 -92 180 -114 l57 -18 -40 -7 c-101
-17 -86 -24 45 -22 127 2 138 4 181 29 85 50 140 150 160 290 15 102 5 149
-42 203 -41 46 -81 53 -191 30 -99 -20 -187 -17 -310 11 -50 11 -97 15 -150
11 l-78 -5 0 59 c0 87 -30 137 -169 282 -150 158 -183 217 -189 346 l-4 87 32
28 c45 38 117 72 167 80 102 15 233 -44 332 -150 80 -86 122 -161 189 -344 65
-174 67 -181 48 -150 -8 14 -15 21 -16 17 0 -11 49 -107 55 -107 3 0 -1 14
-10 30 -9 17 -13 30 -11 30 10 0 37 -60 32 -69 -8 -12 61 -89 95 -106 47 -25
106 -19 134 11 22 24 25 36 25 101 0 131 -77 396 -149 514 -72 117 -114 249
-97 311 7 29 64 66 136 89 72 24 108 23 174 -1z m-278 -951 c17 -18 22 -28 12
-24 -14 6 -55 55 -45 55 2 0 16 -14 33 -31z m134 -3 c0 -2 -8 -10 -17 -17 -16
-13 -17 -12 -4 4 13 16 21 21 21 13z m-52 -33 c-10 -2 -26 -2 -35 0 -10 3 -2
5 17 5 19 0 27 -2 18 -5z"/>
<path d="M856 1230 c4 -14 13 -36 21 -50 l14 -25 -7 25 c-4 14 -13 36 -21 50
l-14 25 7 -25z"/>
</g>
</svg>
