
<svg width="2500" height="2600" viewBox="0 0 25 26" fill="none" xmlns="http://www.w3.org/2000/svg">
<g id="Group 19">
<path id="Vector" d="M12.2494 25.4828C19.0145 25.4828 24.4988 19.9986 24.4988 13.2335C24.4988 6.46835 19.0145 0.984131 12.2494 0.984131C5.48424 0.984131 0 6.46835 0 13.2335C0 19.9986 5.48424 25.4828 12.2494 25.4828Z" fill="#2B2C47"/>
<path id="Vector_2" d="M19.1777 16.7667L16.9389 19.1911C16.8906 19.2438 16.8319 19.2858 16.7667 19.3145C16.7015 19.3433 16.6311 19.3582 16.5599 19.3582H5.94707C5.89645 19.3582 5.84694 19.3433 5.8046 19.3153C5.76226 19.2873 5.72892 19.2474 5.70868 19.2005C5.68843 19.1537 5.68215 19.1019 5.69061 19.0515C5.69907 19.0011 5.72189 18.9542 5.75629 18.9167L7.9926 16.4924C8.04099 16.4397 8.09963 16.3977 8.16486 16.3689C8.23008 16.3402 8.30044 16.3253 8.37157 16.3252H18.9844C19.0355 16.3242 19.0858 16.3384 19.1288 16.3661C19.1719 16.3938 19.2061 16.4338 19.2267 16.481C19.2473 16.5282 19.2537 16.5805 19.245 16.6314C19.2362 16.6822 19.2129 16.7293 19.1777 16.7667ZM16.9389 11.8836C16.8903 11.8312 16.8317 11.7894 16.7665 11.7606C16.7013 11.7319 16.631 11.7169 16.5599 11.7165H5.94707C5.89645 11.7165 5.84694 11.7314 5.8046 11.7594C5.76226 11.7874 5.72892 11.8273 5.70868 11.8742C5.68843 11.921 5.68215 11.9728 5.69061 12.0232C5.69907 12.0736 5.72189 12.1205 5.75629 12.158L7.9926 14.5836C8.04114 14.636 8.09986 14.6778 8.16501 14.7066C8.23016 14.7353 8.30052 14.7503 8.37157 14.7507H18.9844C19.035 14.7504 19.0843 14.7353 19.1264 14.7072C19.1686 14.6791 19.2018 14.6392 19.2218 14.5924C19.2419 14.5456 19.2481 14.4939 19.2395 14.4436C19.231 14.3933 19.2083 14.3466 19.174 14.3092L16.9389 11.8836ZM5.94707 10.1419H16.5599C16.6311 10.1418 16.7015 10.127 16.7667 10.0982C16.8319 10.0695 16.8906 10.0274 16.9389 9.97477L19.1777 7.55043C19.2129 7.51298 19.2362 7.46587 19.245 7.41502C19.2537 7.36418 19.2473 7.31187 19.2267 7.26468C19.2061 7.21749 19.1719 7.17752 19.1288 7.14981C19.0858 7.1221 19.0355 7.10788 18.9844 7.10894H8.37157C8.30044 7.10902 8.23008 7.1239 8.16486 7.15266C8.09963 7.18142 8.04099 7.22344 7.9926 7.2761L5.75629 9.70047C5.72189 9.7379 5.69907 9.78476 5.69061 9.83513C5.68215 9.88558 5.68843 9.93734 5.70868 9.98419C5.72892 10.031 5.76226 10.0709 5.8046 10.099C5.84694 10.127 5.89645 10.1419 5.94707 10.1419Z" fill="url(#paint0_linear_915_2891)"/>
</g>
<defs>
<linearGradient id="paint0_linear_915_2891" x1="6.83147" y1="19.6505" x2="18.0829" y2="7.09035" gradientUnits="userSpaceOnUse">
<stop offset="0.08" stop-color="#9945FF"/>
<stop offset="0.3" stop-color="#8752F3"/>
<stop offset="0.5" stop-color="#5497D5"/>
<stop offset="0.6" stop-color="#43B4CA"/>
<stop offset="0.72" stop-color="#28E0B9"/>
<stop offset="0.97" stop-color="#19FB9B"/>
</linearGradient>
</defs>
</svg>
