<?xml version="1.0" encoding="UTF-8"?>
<svg xmlns="http://www.w3.org/2000/svg" version="1.1" viewBox="0 0 148.6 148.6">
  <defs>
    <style>
      .cls-1 {
        fill: #fff;
      }
    </style>
  </defs>
  <!-- Generator: Adobe Illustrator 28.6.0, SVG Export Plug-In . SVG Version: 1.2.0 Build 709)  -->
  <g>
    <g id="Layer_1">
      <g>
        <circle cx="74.3" cy="74.3" r="74.3"/>
        <path class="cls-1" d="M109.1,89.5c0,19.3-15.5,30.9-34.6,30.9s-32.4-11.4-34.9-26h17.6c1.9,5.5,8.2,9.5,17.3,9.5s17.3-5.1,17.3-14.1-7.1-13.7-17.4-13.7v12.7c-19.4,0-34.3-11-34.3-29.5s14.3-31,34.4-31,32.2,11.4,33.5,25.3h-17c-1.4-5-6.9-8.8-16.1-8.8s-17.4,5.2-17.4,14,7.1,13.1,16.9,13.1v-13.4c21.1,0,34.7,12.7,34.7,30.9Z"/>
      </g>
    </g>
  </g>
</svg>